<?xml version="1.0" standalone="no"?>
<!DOCTYPE svg PUBLIC "-//W3C//DTD SVG 20010904//EN"
 "http://www.w3.org/TR/2001/REC-SVG-20010904/DTD/svg10.dtd">
<svg version="1.0" xmlns="http://www.w3.org/2000/svg"
 width="65.000000pt" height="55.000000pt" viewBox="0 0 65.000000 55.000000"
 preserveAspectRatio="xMidYMid meet">

<g transform="translate(0.000000,55.000000) scale(0.100000,-0.100000)"
fill="#000000" stroke="none">
<path d="M0 275 l0 -275 45 0 45 0 0 90 c0 106 17 150 77 199 85 71 232 69
319 -2 55 -46 74 -96 74 -199 l0 -88 45 0 45 0 0 275 0 275 -45 0 c-42 0 -46
-2 -60 -37 -37 -88 -105 -128 -220 -128 -115 0 -183 40 -220 128 -14 35 -18
37 -60 37 l-45 0 0 -275z"/>
<path d="M250 540 c0 -15 36 -30 75 -30 39 0 75 15 75 30 0 6 -33 10 -75 10
-42 0 -75 -4 -75 -10z"/>
<path d="M290 206 c-46 -15 -60 -46 -60 -133 l0 -73 96 0 96 0 -3 85 c-3 59
-9 89 -19 100 -25 25 -72 34 -110 21z"/>
</g>
</svg>
